<svg width="48" height="48" viewBox="0 0 48 48" fill="none" xmlns="http://www.w3.org/2000/svg">
<path d="M24 48C37.2548 48 48 37.2548 48 24C48 10.7452 37.2548 0 24 0C10.7452 0 0 10.7452 0 24C0 37.2548 10.7452 48 24 48Z" fill="#DDDDDD"/>
<path fill-rule="evenodd" clip-rule="evenodd" d="M24 29C26.3704 29 29.2407 29.2483 31.6111 29.7448C35.5096 30.2892 38.191 32.8884 39.3516 36.8179C35.6836 41.208 30.1678 44 24 44C17.8195 44 12.2939 41.1966 8.62518 36.792C9.73085 32.9982 12.3044 30.5554 16.3889 29.7448C18.7593 29.2483 21.6296 29 24 29ZM24 8C28.4183 8 32 11.5817 32 16V18C32 22.4183 28.4183 26 24 26C19.5817 26 16 22.4183 16 18V16C16 11.5817 19.5817 8 24 8Z" fill="white"/>
</svg>
